<svg id="BiggerPictureLogo" xmlns="http://www.w3.org/2000/svg" viewBox="0 0 200 91.42">
  <title>bigger-picture-logo</title>
  <style>
      .logoPaths {fill: #000;}
  </style>
  <g id="logoGroup">
    <rect class="logoPaths" x="53.2" y="0.39" width="4.39" height="29.69"/>
    <path class="logoPaths" d="M77.36,30.43A15.32,15.32,0,0,0,88.5,25.67l0.34-.34V13.45H75v4.15h9.54v6a11.15,11.15,0,0,1-7.17,2.53,10.76,10.76,0,0,1-8.18-3.21,11.17,11.17,0,0,1-2.74-7.64A11.17,11.17,0,0,1,69.5,7.21a10.77,10.77,0,0,1,7.86-3,11.6,11.6,0,0,1,8,3.19l0.86,0.84,2.77-3-0.79-.78a15.94,15.94,0,0,0-21.9-.17,15.14,15.14,0,0,0-4.19,11A15.42,15.42,0,0,0,66,25.88,15,15,0,0,0,77.36,30.43Z"/>
    <path class="logoPaths" d="M107.31,4.23a11.6,11.6,0,0,1,8,3.19l0.86,0.84,2.77-3-0.79-.78a15.94,15.94,0,0,0-21.9-.17,15.14,15.14,0,0,0-4.19,11,15.42,15.42,0,0,0,3.88,10.57,15,15,0,0,0,11.4,4.55,15.32,15.32,0,0,0,11.14-4.76l0.34-.34V13.45H104.94v4.15h9.54v6a11.15,11.15,0,0,1-7.17,2.53,10.76,10.76,0,0,1-8.18-3.21,11.17,11.17,0,0,1-2.74-7.64,11.17,11.17,0,0,1,3.06-8.05A10.77,10.77,0,0,1,107.31,4.23Z"/>
    <polygon class="logoPaths" points="145.03 25.73 127.75 25.73 127.75 17.25 143.78 17.25 143.78 13.02 127.75 13.02 127.75 4.7 144.56 4.7 144.56 0.39 123.36 0.39 123.36 30.08 145.03 30.08 145.03 25.73"/>
    <path class="logoPaths" d="M155.35,19.72h5.8l9.46,10.36h5.93l-9.86-10.7a9.37,9.37,0,0,0,5-2.56,9.36,9.36,0,0,0,2.59-6.76,9.78,9.78,0,0,0-2.6-6.64,10,10,0,0,0-7.55-3h-13.2V30.08h4.43V19.72Zm8.54-4.31h-8.54V4.66h8.77a5.53,5.53,0,0,1,4,1.52A5.38,5.38,0,0,1,169.65,10C169.61,13.59,167.67,15.41,163.89,15.41Z"/>
    <path class="logoPaths" d="M36.67,38.22H23.51V67.91h4.43V58.45h8.73a9.75,9.75,0,0,0,7.55-3.19,10.77,10.77,0,0,0,0-13.85A9.75,9.75,0,0,0,36.67,38.22Zm0,16H27.94V42.49h8.73a5.42,5.42,0,0,1,4.25,1.79,6.51,6.51,0,0,1,0,8.13A5.42,5.42,0,0,1,36.67,54.21Z"/>
    <rect class="logoPaths" x="53.2" y="38.22" width="4.39" height="29.69"/>
    <path class="logoPaths" d="M77.36,42.1a10.8,10.8,0,0,1,7.7,3.14L85.83,46,89,43.23l-0.88-.88a15.83,15.83,0,0,0-21.78-.21,15.32,15.32,0,0,0-4.24,11.08A15.37,15.37,0,0,0,66,63.7a15,15,0,0,0,11.33,4.52,15.15,15.15,0,0,0,10.79-4.44L89,62.93,85.91,60l-0.8.78a11.13,11.13,0,0,1-7.75,3.15c-5,0-10.79-2.83-10.88-10.81a11.22,11.22,0,0,1,3-8.09A10.79,10.79,0,0,1,77.36,42.1Z"/>
    <path class="logoPaths" d="M93.68,42.45h9.89V87H4.43V17.16H23.55V30.08H35.93a15.19,15.19,0,0,0,7.3-1.62A7.31,7.31,0,0,0,47,21.76a8.05,8.05,0,0,0-3.84-7A7,7,0,0,0,46.08,9,7.85,7.85,0,0,0,42.84,2.4a11.8,11.8,0,0,0-6.91-2H23.55V12.73H0V91.42H108v-49h9.89V38.26H93.68v4.19ZM28,17.16H36.2c1.5,0,6.39.33,6.43,4.6a3.2,3.2,0,0,1-2,3.14,11,11,0,0,1-4.71.83H28V17.16Zm12.24-5.26a8.18,8.18,0,0,1-4,.83H28V4.51h8c2.69,0,5.84,1.17,5.84,4.48A3,3,0,0,1,40.21,11.89Z"/>
    <path class="logoPaths" d="M142,56.39c0,3.69-2.27,7.65-7.26,7.65a7.25,7.25,0,0,1-5-1.89,7.63,7.63,0,0,1-2.25-5.76V38.22h-4.39V56.39a11.64,11.64,0,1,0,23.27,0V38.22H142V56.39Z"/>
    <path class="logoPaths" d="M171.8,54.65a9.36,9.36,0,0,0,2.59-6.76,9.78,9.78,0,0,0-2.6-6.64,10,10,0,0,0-7.55-3H151V67.91h4.43V57.55h5.8l9.46,10.36h5.93l-9.86-10.7A9.37,9.37,0,0,0,171.8,54.65ZM155.47,42.49h8.77a5.53,5.53,0,0,1,4,1.52,5.38,5.38,0,0,1,1.48,3.84c0,3.57-2,5.38-5.76,5.38h-8.54V42.49Z"/>
    <polygon class="logoPaths" points="182.72 63.56 182.72 55.08 198.75 55.08 198.75 50.85 182.72 50.85 182.72 42.53 199.53 42.53 199.53 38.22 178.33 38.22 178.33 67.91 200 67.91 200 63.56 182.72 63.56"/>
  </g>
</svg>
